<svg version="1.1" xmlns="http://www.w3.org/2000/svg" style="display: block;" viewBox="0 0 2048 2048" width="1280" height="1280" preserveAspectRatio="none">
<path transform="translate(0,0)" fill="rgb(252,252,250)" d="M 0 0 L 2048 0 L 2048 2048 L 0 2048 L 0 0 z"/>
<path transform="translate(0,0)" fill="rgb(188,196,187)" d="M 1644.82 53.4964 C 1668.4 53.2031 1692.86 53.8293 1716.29 53.371 C 1768.02 52.3592 1817.05 52.1279 1857.41 90.7355 C 1885.64 117.741 1888.47 156.551 1888.83 192.891 L 1889.1 887.45 L 1889.13 1095.56 L 1889.18 1158.38 C 1889.19 1205.17 1886.86 1239.54 1852.54 1275.94 C 1840.09 1289.16 1820.69 1297.79 1803.15 1301.45 C 1766.94 1309.02 1727.68 1307.86 1690.68 1307.92 L 1587.88 1308.25 C 1527.61 1308.34 1473.98 1289.47 1455.4 1226.75 C 1448.49 1203.45 1448.81 1184.59 1448.79 1160.75 L 1447.96 1007.48 C 1447.85 971.196 1447.62 934.566 1446.93 898.256 C 1445.24 809.478 1394.32 739.362 1302.21 732.655 C 1263.44 729.832 1223.48 732.532 1184.55 730.391 C 1166.98 729.425 1148.66 730.748 1131.59 725.38 C 1111.32 719.068 1088.16 695.821 1077.65 677.975 C 1066.4 658.872 1061.59 631.5 1061.26 609.583 C 1060.73 574.1 1060.81 538.378 1060.66 502.815 L 1059.82 304.612 L 1058.82 204.93 C 1058.79 183.869 1058.21 160.214 1061.88 139.649 C 1068.8 100.806 1108.06 65.2195 1146.11 57.9289 C 1166.2 54.0786 1190.03 54.8776 1210.68 54.8936 L 1290.97 54.9621 L 1523.25 54.0812 C 1563.25 53.9103 1605.01 54.6998 1644.82 53.4964 z"/>
<path transform="translate(0,0)" fill="rgb(105,136,139)" d="M 1213.16 805.456 C 1262.57 804.75 1299.71 799.103 1334.74 835.884 C 1368.82 871.655 1369.44 899.118 1369.87 945.489 L 1370.57 1141.59 L 1370.96 1228.03 C 1371.02 1254.19 1372.12 1286.65 1366.58 1312.17 C 1364 1324.04 1348.92 1341.29 1340.54 1349.75 C 1323.53 1367.04 1301.31 1378.25 1277.31 1381.66 C 1254 1385.15 1209.24 1383.48 1184.47 1383.69 L 968.75 1384.03 L 303.5 1385.1 C 256.729 1385.24 216.932 1388.7 178.472 1354.22 C 155.229 1333.38 146.34 1305.27 145.702 1275.07 C 145.144 1248.65 145.151 1222.03 145.103 1195.41 L 144.748 1054.29 C 144.655 1028.19 144.393 1002.1 143.962 976.009 C 143.549 949.042 142.478 913.975 147.306 887.939 C 153.254 855.866 204.008 814.214 235.549 810.293 C 265.191 806.607 301.103 807.319 331.34 807.278 L 497.679 807.271 L 1027.17 806.03 C 1087.23 805.489 1154.12 807.779 1213.16 805.456 z"/>
<path transform="translate(0,0)" fill="rgb(9,62,67)" d="M 401.235 49.5198 C 503.734 47.8342 607.86 49.4056 710.523 48.9872 C 745.278 48.5785 780.035 48.4223 814.791 48.5185 C 840.841 48.5095 869.546 47.4773 894.952 52.3078 C 920.497 57.3414 944.07 69.5745 962.891 87.5645 C 986.37 110.347 988.378 154.424 988.453 184.964 C 988.69 281.208 988.576 377.525 988.65 473.77 L 988.662 568.835 C 988.639 610.684 992.192 667.266 960.506 698.786 C 922.367 736.726 860.952 734.486 812.068 734.525 L 733.178 734.482 L 399.458 734.998 L 306.668 735.509 C 241.85 735.515 171.578 733.115 147.491 655.748 C 144.834 647.215 144.797 631.193 144.646 621.973 C 143.303 512.318 142.802 402.655 143.143 292.992 L 142.947 198.959 C 142.915 181.88 141.748 161.978 144.236 145.083 C 151.231 97.5801 185.959 62.0029 232.778 52.5781 C 255.385 48.0272 282.469 49.5352 305.467 49.5438 L 401.235 49.5198 z"/>
<path transform="translate(0,0)" fill="rgb(188,196,187)" d="M 278.584 1463.42 C 290.064 1461.54 312.758 1462.83 324.638 1462.94 L 392.136 1463.08 L 638.996 1463.04 L 936.977 1463.03 L 1026.45 1463.03 C 1052.01 1463.02 1078.34 1462.83 1103.73 1465.25 C 1125.07 1466.82 1135.62 1471.53 1152.15 1484.33 C 1202.94 1523.64 1200.37 1569.1 1200.61 1627.76 L 1200.83 1722.83 L 1201.46 1814.77 C 1201.84 1870.78 1204.53 1926.72 1155.68 1965.36 C 1129.45 1986.1 1102.85 1987.88 1070.76 1990.88 C 1030.22 1991.7 989.501 1988.8 948.46 1988.76 L 575.867 1988.76 L 368.439 1988.75 C 325.374 1988.75 281.634 1989.51 238.604 1986.21 C 220.071 1984.78 206.307 1978.64 192.082 1967.02 C 142.718 1926.7 145.146 1874.06 145.054 1816.53 L 144.904 1725.32 L 144.22 1647.5 C 143.947 1619.52 143.408 1595.01 147.606 1567.16 C 159.293 1489.62 206.662 1469.65 278.584 1463.42 z"/>
<path transform="translate(0,0)" fill="rgb(211,154,65)" d="M 1567.93 1371.05 C 1739.43 1361.26 1886.4 1492.35 1896.19 1663.85 C 1905.98 1835.35 1774.89 1982.31 1603.38 1992.1 C 1431.89 2001.88 1284.94 1870.79 1275.15 1699.3 C 1265.36 1527.81 1396.44 1380.85 1567.93 1371.05 z"/>
</svg>